<?xml version="1.0" encoding="UTF-8"?>
<svg id="Layer_1" data-name="Layer 1" xmlns="http://www.w3.org/2000/svg" viewBox="0 0 219.41 46.02">
  <defs>
    <style>
      .cls-1 {
        letter-spacing: 0em;
      }

      .cls-2 {
        fill: #88c057;
      }

      .cls-2, .cls-3, .cls-4 {
        stroke-width: 0px;
      }

      .cls-5 {
        letter-spacing: -.02em;
      }

      .cls-6 {
        fill: #fff;
        font-family: Bahnschrift-Bold, Bahnschrift;
        font-size: 40.89px;
        font-variation-settings: 'wght' 700, 'wdth' 100;
        font-weight: 700;
      }

      .cls-3 {
        fill: #d13834;
      }

      .cls-4 {
        fill: #ed7161;
      }
    </style>
  </defs>
  <g>
    <path class="cls-2" d="M25.66,8.3c-1.64-1.05-4.72-2.52-7.68-1.16-.28.13-.61-.07-.61-.39v-2.72c0-.63-.43-1.14-.95-1.14h-1.42c-.52,0-.95.51-.95,1.14v2.88c0,.27-.25.48-.51.42-1.2-.25-4.32-.63-7.31,1.15-.41.24-.17.88.3.8,1.39-.25,3.22-.43,4.45.06.32.13.37.57.08.76-.88.57-2.5,1.89-3.56,4.31-.18.41.33.78.67.5,1.36-1.12,3.59-2.63,5.48-2.39.22.03.39.21.39.44-.02,1.27,0,5.58,1.05,7.21.17.26.54.27.72.02.67-.92,2.12-3.35,2.06-7.15,0-.25.2-.45.45-.44.95.03,3.21.3,4.99,2.05.29.29.78.04.73-.37-.14-1.11-.75-2.79-2.97-4.09-.34-.2-.28-.7.1-.79.76-.19,2.08-.37,4.25-.29.44.01.62-.56.25-.8Z"/>
    <path class="cls-3" d="M26.16,9.28c-.06-.04-.13-.07-.2-.08-.26-.03-.51-.06-.77-.1-.09,0-.18-.02-.27-.02-1.87-.03-3.04.13-3.74.3-.38.09-.45.6-.11.8,2.21,1.3,2.82,2.98,2.96,4.09.05.41-.43.65-.73.37-1.79-1.74-4.04-2.01-4.99-2.05-.25,0-.45.19-.45.44.06,3.8-1.39,6.23-2.06,7.15-.18.25-.55.24-.72-.02-1.05-1.63-1.06-5.94-1.05-7.21,0-.22-.17-.41-.39-.44-1.89-.24-4.12,1.27-5.48,2.39-.35.29-.85-.08-.67-.5,1.06-2.42,2.68-3.74,3.56-4.31.29-.19.24-.64-.08-.76-.24-.09-.5-.16-.77-.21-.05,0-.1,0-.15,0-1.55.21-3.08.51-4.56.9-.07.02-.13.05-.18.09C2.05,12.84,0,16.76,0,21.11c0,8.21,7.3,14.87,16.3,14.87s16.3-6.66,16.3-14.87c0-4.83-2.52-9.12-6.43-11.83Z"/>
    <path class="cls-4" d="M3.46,25.06c-.22,0-.43-.11-.55-.31-.48-.81-.79-1.7-.93-2.66-.05-.35.19-.68.54-.73.36-.06.68.19.73.54.11.78.38,1.53.77,2.19.18.3.08.7-.22.88-.1.06-.22.09-.33.09Z"/>
    <path class="cls-4" d="M2.69,19.97s-.03,0-.04,0c-.35-.02-.62-.33-.59-.68.06-.85.23-1.68.52-2.46.12-.33.49-.5.82-.38.33.12.5.49.38.82-.24.67-.39,1.37-.44,2.1-.02.34-.3.6-.64.6Z"/>
  </g>
  <text class="cls-6" transform="translate(37.85 34.96) scale(1.2 1)"><tspan class="cls-1" x="0" y="0">ZOM</tspan><tspan class="cls-5" x="79.31" y="0">A</tspan><tspan x="104.99" y="0">TO</tspan></text>
</svg>